<svg width="125" height="64" viewBox="0 0 125 64" fill="none" xmlns="http://www.w3.org/2000/svg">
<path fill-rule="evenodd" clip-rule="evenodd" d="M26.0571 0.133179H40.8935L38.4096 9.25701C38.4096 9.25701 34.1131 9.4568 30.7564 7.59208C27.3998 5.79395 26.0571 0.133179 26.0571 0.133179Z" fill="#E03C31"/>
<path d="M31.9648 47.3507H115.948L120.379 31.2341H66.2026L74.3257 0.133179H45.0558L31.9648 47.3507Z" fill="#002F6C"/>
<path d="M77.4139 0.133187L69.9622 29.1696H89.6992L91.0419 23.642L95.8083 29.1696H120.849L108.228 14.052L124.877 0.0665894H101.045L95.8083 4.86159L96.8824 0.133187H77.4139Z" fill="#002F6C"/>
<path fill-rule="evenodd" clip-rule="evenodd" d="M0.412498 0.466187C0.412498 0.466187 -2.13855 22.3767 5.44746 32.7659C15.0475 45.8189 27.6684 47.1509 27.6684 47.1509L31.0922 34.0978C31.0922 34.0978 21.0894 32.8325 13.1006 26.3059C0.613897 16.1166 0.412498 0.466187 0.412498 0.466187Z" fill="#002F6C"/>
<path fill-rule="evenodd" clip-rule="evenodd" d="M3.29919 0H16.3901C16.3901 0 15.9873 6.45994 21.2237 13.1863C26.46 19.9126 35.3887 20.3788 35.3887 20.3788L32.5691 30.2352C32.5691 30.2352 20.0153 29.5026 11.7579 20.0458C3.29919 10.6556 3.29919 0 3.29919 0Z" fill="#002F6C"/>
<path fill-rule="evenodd" clip-rule="evenodd" d="M25.0501 0C25.0501 0 25.3858 6.12695 29.4809 8.79084C33.1061 11.1217 37.7383 11.2549 37.7383 11.2549L36.1942 16.7159C36.1942 16.7159 28.4739 16.7825 23.3718 12.0541C17.4641 6.52654 17.5984 0 17.5984 0H25.0501Z" fill="#002F6C"/>
<path d="M46.0628 61.4027C46.0628 61.8023 45.8614 62.0021 45.4586 62.0021C45.0558 62.0021 44.8544 62.0021 44.7872 61.9355C44.5858 61.8689 44.4516 61.6691 44.4516 61.4027V56.9407C44.4516 56.3413 43.7803 56.0749 42.3705 56.0749C42.2362 56.0749 42.1019 56.0749 41.9005 56.0749C41.6991 56.0749 41.632 56.0749 41.5649 56.0749C40.4907 56.0749 39.9537 56.4079 39.9537 57.1405V61.4027C39.9537 61.6691 39.8194 61.8689 39.618 61.9355C39.5509 61.9355 39.2823 62.0021 38.9467 62.0021C38.5439 62.0021 38.3425 61.8023 38.3425 61.4027V57.0739C38.3425 56.6743 38.2082 56.3413 37.8726 56.2081C37.6712 56.0749 37.3355 56.0749 36.7984 56.0749C36.7313 56.0749 36.597 56.0749 36.3956 56.0749C36.1942 56.0749 35.9928 56.0749 35.8586 56.0749C34.4488 56.0749 33.7774 56.3413 33.7774 56.9407V61.4027C33.7774 61.6691 33.6432 61.8689 33.4418 61.9355C33.3747 61.9355 33.1061 62.0021 32.7705 62.0021C32.3677 62.0021 32.1663 61.8023 32.1663 61.4027V57.0739C32.1663 55.4756 33.3075 54.6764 35.6572 54.6764C36.6642 54.6764 37.2684 54.6764 37.4698 54.743C38.074 54.8096 38.611 55.0094 39.1481 55.3424C39.618 55.0094 40.2222 54.8762 40.8264 54.743C41.0949 54.6764 41.6991 54.6764 42.639 54.6764C44.9215 54.6764 45.9956 55.4756 45.9956 57.0739V61.4027H46.0628Z" fill="#002F6C"/>
<path d="M57.1398 58.4724C57.1398 58.9386 57.0055 59.1384 56.6698 59.1384H48.6139C48.5467 60.1374 49.3523 60.6701 51.0978 60.6701H51.5677H51.9705C52.3733 60.6701 52.5747 60.9365 52.5747 61.4027C52.5747 61.8023 52.3733 62.0021 51.9705 62.0021C50.8964 62.0021 50.2251 62.0021 49.8894 61.9355C49.0167 61.8689 48.3453 61.6691 47.9425 61.3361C47.3384 60.8699 47.0698 60.3372 47.0698 59.7378V57.0739C47.0698 56.2081 47.5398 55.6087 48.4796 55.2092C49.1509 54.9428 49.9565 54.743 50.9635 54.743H53.9845C54.7901 54.743 55.4614 54.8762 56.0656 55.1426C56.8712 55.4756 57.2069 56.0083 57.2069 56.7409V58.4724H57.1398ZM55.5957 57.7399V56.8741C55.5957 56.3413 54.5216 56.0749 52.3062 56.0749C52.0377 56.0749 51.7691 56.0749 51.4335 56.0749C51.1649 56.0749 51.0307 56.0749 51.0307 56.0749C49.4195 56.0749 48.6139 56.3413 48.6139 56.9407V57.8065H55.5957V57.7399Z" fill="#002F6C"/>
<path d="M63.5173 55.4756C63.5173 55.8751 63.3159 56.0749 62.9131 56.0749H60.3621V61.3361C60.3621 61.7357 60.1607 61.9355 59.7579 61.9355C59.3551 61.9355 59.1537 61.9355 59.0865 61.8689C58.8851 61.8023 58.7509 61.6025 58.7509 61.3361V56.0749H58.2138C57.811 56.0749 57.6096 55.8751 57.6096 55.409C57.6096 54.9428 57.811 54.743 58.2138 54.743H58.7509V53.2778C58.7509 52.8783 58.9523 52.6785 59.3551 52.6785C59.7579 52.6785 59.9593 52.6785 60.0264 52.7451C60.2278 52.8117 60.3621 53.0115 60.3621 53.2778V54.743H62.9131C63.3159 54.743 63.5173 55.0094 63.5173 55.4756Z" fill="#002F6C"/>
<path d="M69.2909 55.4755C69.2909 55.8751 69.0895 56.0749 68.6867 56.0749H68.351H67.9482C66.7398 56.0749 66.0685 56.4079 66.0685 57.0073V61.4027C66.0685 61.6691 65.9342 61.8689 65.7328 61.9355C65.6657 61.9355 65.3971 62.0021 64.9943 62.0021C64.5915 62.0021 64.3901 61.8023 64.3901 61.4027V57.0073C64.3901 55.4755 65.7999 54.743 68.5524 54.743C69.0895 54.6764 69.2909 54.9428 69.2909 55.4755Z" fill="#002F6C"/>
<path d="M80.0321 59.7378C80.0321 60.537 79.6293 61.2029 78.8237 61.5359C78.2195 61.8023 77.4139 62.0021 76.4741 62.0021H73.7887C72.8489 62.0021 72.0433 61.8689 71.372 61.5359C70.4992 61.1363 70.0293 60.537 70.0293 59.7378V57.0739C70.0293 56.2747 70.4992 55.6753 71.372 55.2092C72.0433 54.8762 72.8489 54.743 73.7887 54.743H76.4741C78.8908 54.743 80.0321 55.5421 80.0321 57.0739V59.7378ZM78.4209 59.7378V56.9407C78.4209 56.3413 77.7496 56.0749 76.4069 56.0749H73.7887C73.3188 56.0749 72.8489 56.1415 72.4461 56.2747C71.909 56.4745 71.6405 56.7409 71.6405 57.0739V59.7378C71.6405 60.0708 71.909 60.3372 72.5132 60.4704C72.916 60.6036 73.3188 60.6035 73.7887 60.6035H76.4069C76.8097 60.6035 77.2125 60.537 77.6153 60.4038C78.1524 60.2706 78.4209 60.0042 78.4209 59.7378Z" fill="#002F6C"/>
<path d="M82.6501 61.4027C82.6501 61.8023 82.4487 62.0021 82.0459 62.0021C81.6431 62.0021 81.4417 62.0021 81.3746 61.9355C81.1732 61.8689 81.0389 61.6691 81.0389 61.4027V53.3444C81.0389 52.9448 81.2403 52.7451 81.6431 52.7451C82.0459 52.7451 82.2473 52.7451 82.3145 52.8117C82.5159 52.8783 82.6501 53.078 82.6501 53.3444V61.4027Z" fill="#002F6C"/>
<path d="M93.66 59.7378C93.66 60.537 93.2572 61.2029 92.4516 61.5359C91.8474 61.8023 91.0418 62.0021 90.102 62.0021H87.4167C86.4768 62.0021 85.6712 61.8689 84.9999 61.5359C84.1272 61.1363 83.6572 60.537 83.6572 59.7378V57.0739C83.6572 56.2747 84.1272 55.6753 84.9999 55.2092C85.6712 54.8762 86.4768 54.743 87.4167 54.743H90.102C92.5188 54.743 93.66 55.5421 93.66 57.0739V59.7378ZM92.0488 59.7378V56.9407C92.0488 56.3413 91.3775 56.0749 90.0348 56.0749H87.4167C86.9467 56.0749 86.4768 56.1415 86.074 56.2747C85.5369 56.4745 85.2684 56.7409 85.2684 57.0739V59.7378C85.2684 60.0708 85.5369 60.3372 86.1411 60.4704C86.5439 60.6036 86.9467 60.6035 87.4167 60.6035H90.0348C90.4376 60.6035 90.8404 60.537 91.2432 60.4038C91.7803 60.2706 92.0488 60.0042 92.0488 59.7378Z" fill="#002F6C"/>
<path d="M104.804 61.7357C104.804 62.5349 104.267 63.2008 103.193 63.6004C102.455 63.8668 101.582 64 100.575 64H99.9035C99.5007 64 99.2993 63.7336 99.2993 63.2674C99.2993 62.8679 99.5007 62.6681 99.9035 62.6681H101.045C101.313 62.6681 101.716 62.6015 102.186 62.4683C102.79 62.2685 103.059 62.1353 103.126 61.9355H98.6951C97.6881 61.9355 96.8154 61.8023 96.144 61.5359C95.137 61.1363 94.6671 60.5369 94.6671 59.6712V56.9407C94.6671 55.409 96.2112 54.6764 99.2322 54.6764C99.4335 54.6764 99.7021 54.6764 100.038 54.6764C100.373 54.6764 100.575 54.6764 100.709 54.6764C101.716 54.6764 102.589 54.8096 103.327 55.076C104.334 55.4756 104.871 56.0749 104.871 56.9407V61.7357H104.804ZM103.193 60.537V57.0073C103.193 56.6743 102.857 56.3413 102.253 56.2081C101.85 56.0749 101.38 56.0083 100.91 56.0083H98.3594C97.7552 56.0083 97.3524 56.0083 97.0839 56.0749C96.5468 56.2081 96.2783 56.4745 96.2783 56.8741V59.6046C96.2783 60.204 97.0839 60.537 98.6951 60.537H103.193Z" fill="#002F6C"/>
<path d="M115.881 61.8689C115.881 62.8679 115.277 63.5338 114.068 63.8002C113.531 63.9334 112.524 64 111.115 64C110.846 64 110.712 63.9334 110.578 63.8002C110.51 63.667 110.51 63.5338 110.51 63.2674C110.51 62.8679 110.712 62.6681 111.115 62.6681C111.115 62.6681 111.249 62.6681 111.45 62.6681C111.652 62.6681 111.853 62.6681 112.055 62.6681C113.464 62.6681 114.203 62.4017 114.203 61.9355H109.369C106.952 61.9355 105.744 61.2029 105.744 59.7378V55.2758C105.744 55.0094 105.878 54.8096 106.08 54.743C106.147 54.743 106.415 54.6764 106.751 54.6764C107.154 54.6764 107.355 54.8762 107.355 55.2758V59.7378C107.355 60.2706 108.027 60.6035 109.369 60.6035H114.203V55.2758C114.203 54.8762 114.404 54.6764 114.807 54.6764C115.21 54.6764 115.411 54.6764 115.478 54.743C115.68 54.8096 115.814 55.0094 115.814 55.2758V61.8689H115.881Z" fill="#002F6C"/>
</svg>
